<svg width="162" height="44" viewBox="0 0 162 44" fill="none" xmlns="http://www.w3.org/2000/svg">
<g clip-path="url(#clip0_0_59)">
<rect width="162" height="44" rx="22" fill="#FF6565"/>
<path d="M35.9016 27.168C35.323 27.168 34.777 27.07 34.2636 26.874C33.7503 26.6687 33.2976 26.37 32.9056 25.978C32.523 25.586 32.2196 25.1007 31.9956 24.522C31.7716 23.934 31.6596 23.2573 31.6596 22.492C31.6596 21.736 31.7763 21.064 32.0096 20.476C32.243 19.8787 32.5556 19.3747 32.9476 18.964C33.3396 18.5533 33.797 18.2407 34.3196 18.026C34.8423 17.8113 35.393 17.704 35.9716 17.704C36.5596 17.704 37.087 17.8253 37.5536 18.068C38.0203 18.3013 38.4076 18.5767 38.7156 18.894L37.6236 20.21C37.3903 19.9953 37.143 19.8227 36.8816 19.692C36.6296 19.552 36.3403 19.482 36.0136 19.482C35.7056 19.482 35.4116 19.552 35.1316 19.692C34.861 19.8227 34.623 20.014 34.4176 20.266C34.2216 20.518 34.063 20.826 33.9416 21.19C33.8296 21.554 33.7736 21.9647 33.7736 22.422C33.7736 23.3647 33.9743 24.0973 34.3756 24.62C34.777 25.1333 35.3136 25.39 35.9856 25.39C36.359 25.39 36.6903 25.3107 36.9796 25.152C37.2783 24.984 37.5396 24.7787 37.7636 24.536L38.8556 25.824C38.0903 26.72 37.1056 27.168 35.9016 27.168ZM42.3841 22.38L42.1601 23.22H44.1061L43.8961 22.38C43.7654 21.9227 43.6394 21.4373 43.5181 20.924C43.3967 20.4107 43.2754 19.916 43.1541 19.44H43.0981C42.9861 19.9253 42.8694 20.4247 42.7481 20.938C42.6361 21.442 42.5147 21.9227 42.3841 22.38ZM39.0801 27L41.9361 17.872H44.4141L47.2701 27H45.0861L44.5261 24.83H41.7401L41.1801 27H39.0801ZM48.2675 27V17.872H50.3255V25.264H53.9375V27H48.2675ZM55.5135 27V17.872H57.5715V25.264H61.1835V27H55.5135ZM67.3404 27V19.608H64.8344V17.872H71.9184V19.608H69.4124V27H67.3404ZM76.6552 27.168C76.0392 27.168 75.4745 27.0607 74.9612 26.846C74.4572 26.622 74.0232 26.3047 73.6592 25.894C73.2952 25.4833 73.0105 24.984 72.8052 24.396C72.6092 23.808 72.5112 23.1407 72.5112 22.394C72.5112 21.6473 72.6092 20.9847 72.8052 20.406C73.0105 19.818 73.2952 19.328 73.6592 18.936C74.0232 18.5347 74.4572 18.2313 74.9612 18.026C75.4745 17.8113 76.0392 17.704 76.6552 17.704C77.2712 17.704 77.8312 17.8113 78.3352 18.026C78.8485 18.2313 79.2872 18.5347 79.6512 18.936C80.0152 19.3373 80.2952 19.832 80.4912 20.42C80.6965 20.9987 80.7992 21.6567 80.7992 22.394C80.7992 23.1407 80.6965 23.808 80.4912 24.396C80.2952 24.984 80.0152 25.4833 79.6512 25.894C79.2872 26.3047 78.8485 26.622 78.3352 26.846C77.8312 27.0607 77.2712 27.168 76.6552 27.168ZM76.6552 25.39C77.2805 25.39 77.7752 25.124 78.1392 24.592C78.5032 24.0507 78.6852 23.318 78.6852 22.394C78.6852 21.4793 78.5032 20.7653 78.1392 20.252C77.7752 19.7387 77.2805 19.482 76.6552 19.482C76.0299 19.482 75.5352 19.7387 75.1712 20.252C74.8072 20.7653 74.6252 21.4793 74.6252 22.394C74.6252 23.318 74.8072 24.0507 75.1712 24.592C75.5352 25.124 76.0299 25.39 76.6552 25.39ZM87.4602 22.38L87.2362 23.22H89.1822L88.9722 22.38C88.8416 21.9227 88.7156 21.4373 88.5942 20.924C88.4729 20.4107 88.3516 19.916 88.2302 19.44H88.1742C88.0622 19.9253 87.9456 20.4247 87.8242 20.938C87.7122 21.442 87.5909 21.9227 87.4602 22.38ZM84.1562 27L87.0122 17.872H89.4902L92.3462 27H90.1622L89.6022 24.83H86.8162L86.2562 27H84.1562ZM97.0149 27.168C96.4362 27.168 95.8902 27.07 95.3769 26.874C94.8636 26.6687 94.4109 26.37 94.0189 25.978C93.6362 25.586 93.3329 25.1007 93.1089 24.522C92.8849 23.934 92.7729 23.2573 92.7729 22.492C92.7729 21.736 92.8896 21.064 93.1229 20.476C93.3562 19.8787 93.6689 19.3747 94.0609 18.964C94.4529 18.5533 94.9102 18.2407 95.4329 18.026C95.9556 17.8113 96.5062 17.704 97.0849 17.704C97.6729 17.704 98.2002 17.8253 98.6669 18.068C99.1336 18.3013 99.5209 18.5767 99.8289 18.894L98.7369 20.21C98.5036 19.9953 98.2562 19.8227 97.9949 19.692C97.7429 19.552 97.4536 19.482 97.1269 19.482C96.8189 19.482 96.5249 19.552 96.2449 19.692C95.9742 19.8227 95.7362 20.014 95.5309 20.266C95.3349 20.518 95.1762 20.826 95.0549 21.19C94.9429 21.554 94.8869 21.9647 94.8869 22.422C94.8869 23.3647 95.0876 24.0973 95.4889 24.62C95.8902 25.1333 96.4269 25.39 97.0989 25.39C97.4722 25.39 97.8036 25.3107 98.0929 25.152C98.3916 24.984 98.6529 24.7787 98.8769 24.536L99.9689 25.824C99.2036 26.72 98.2189 27.168 97.0149 27.168ZM102.969 27V19.608H100.463V17.872H107.547V19.608H105.041V27H102.969ZM108.971 27V17.872H111.029V27H108.971ZM116.892 27.168C116.276 27.168 115.711 27.0607 115.198 26.846C114.694 26.622 114.26 26.3047 113.896 25.894C113.532 25.4833 113.247 24.984 113.042 24.396C112.846 23.808 112.748 23.1407 112.748 22.394C112.748 21.6473 112.846 20.9847 113.042 20.406C113.247 19.818 113.532 19.328 113.896 18.936C114.26 18.5347 114.694 18.2313 115.198 18.026C115.711 17.8113 116.276 17.704 116.892 17.704C117.508 17.704 118.068 17.8113 118.572 18.026C119.085 18.2313 119.524 18.5347 119.888 18.936C120.252 19.3373 120.532 19.832 120.728 20.42C120.933 20.9987 121.036 21.6567 121.036 22.394C121.036 23.1407 120.933 23.808 120.728 24.396C120.532 24.984 120.252 25.4833 119.888 25.894C119.524 26.3047 119.085 26.622 118.572 26.846C118.068 27.0607 117.508 27.168 116.892 27.168ZM116.892 25.39C117.517 25.39 118.012 25.124 118.376 24.592C118.74 24.0507 118.922 23.318 118.922 22.394C118.922 21.4793 118.74 20.7653 118.376 20.252C118.012 19.7387 117.517 19.482 116.892 19.482C116.266 19.482 115.772 19.7387 115.408 20.252C115.044 20.7653 114.862 21.4793 114.862 22.394C114.862 23.318 115.044 24.0507 115.408 24.592C115.772 25.124 116.266 25.39 116.892 25.39ZM122.752 27V17.872H124.866L127.246 22.408L128.142 24.424H128.198C128.151 23.9387 128.095 23.3973 128.03 22.8C127.974 22.2027 127.946 21.6333 127.946 21.092V17.872H129.906V27H127.792L125.412 22.45L124.516 20.462H124.46C124.506 20.966 124.558 21.5073 124.614 22.086C124.679 22.6647 124.712 23.2247 124.712 23.766V27H122.752Z" fill="white"/>
</g>
<defs>
<clipPath id="clip0_0_59">
<rect width="162" height="44" fill="white"/>
</clipPath>
</defs>
</svg>
