<svg width="95" height="74" viewBox="0 0 95 74" fill="none" xmlns="http://www.w3.org/2000/svg">
<path d="M43.0088 0.0241699C44.1685 0.0241699 45.1093 1.07916 45.1094 2.38062V71.0125C45.1094 72.314 44.1686 73.3689 43.0088 73.3689C41.8492 73.3686 40.9092 72.3139 40.9092 71.0125V2.38062C40.9093 1.07932 41.8492 0.0244183 43.0088 0.0241699ZM51.1914 5.86792C52.3509 5.86811 53.2908 6.92279 53.291 8.22437V65.1687C53.291 66.4701 52.351 67.525 51.1914 67.5251C50.0316 67.5251 49.0909 66.4702 49.0908 65.1687V8.22437C49.091 6.92301 50.0317 5.86792 51.1914 5.86792ZM34.8271 16.3582C35.9869 16.3582 36.9277 17.4131 36.9277 18.7146V54.6785C36.9277 55.98 35.9869 57.0359 34.8271 57.0359C33.6676 57.0356 32.7275 55.9799 32.7275 54.6785V18.7146C32.7276 17.4132 33.6676 16.3584 34.8271 16.3582ZM59.373 17.5564C60.5326 17.5566 61.4725 18.6116 61.4727 19.9128V53.4802C61.4725 54.7815 60.5326 55.8365 59.373 55.8367C58.2134 55.8367 57.2726 54.7816 57.2725 53.4802V19.9128C57.2726 18.6114 58.2134 17.5564 59.373 17.5564ZM26.6455 23.2517C27.8056 23.2518 28.7451 24.3063 28.7451 25.6082V47.7859C28.7451 49.0874 27.8052 50.1423 26.6455 50.1423C25.4857 50.1423 24.545 49.0874 24.5449 47.7859V25.6082C24.5449 24.3066 25.4857 23.2517 26.6455 23.2517ZM67.5547 24.5994C68.7145 24.5994 69.6552 25.6543 69.6553 26.9558V46.4373C69.6551 47.7386 68.7144 48.7937 67.5547 48.7937C66.3951 48.7936 65.4553 47.7385 65.4551 46.4373V26.9558C65.4551 25.6544 66.395 24.5995 67.5547 24.5994ZM18.4639 27.1472C19.6236 27.1473 20.5634 28.2022 20.5635 29.5037V43.8894C20.5635 45.1909 19.6236 46.2458 18.4639 46.2458C17.3041 46.2458 16.3643 45.191 16.3643 43.8894V29.5037C16.3643 28.2022 17.3041 27.1472 18.4639 27.1472ZM75.7363 27.5974C76.8961 27.5974 77.8369 28.6523 77.8369 29.9539V43.4402C77.8369 44.7417 76.8961 45.7966 75.7363 45.7966C74.5768 45.7963 73.6367 44.7415 73.6367 43.4402V29.9539C73.6367 28.6525 74.5767 27.5977 75.7363 27.5974ZM2.09961 30.4441C3.25933 30.4441 4.20007 31.4988 4.2002 32.8005V40.5925C4.2002 41.8941 3.25941 42.95 2.09961 42.95C0.939989 42.9497 0 41.8939 0 40.5925V32.8005C0.000121184 31.4992 0.940064 30.4443 2.09961 30.4441ZM10.2822 30.4441C11.4421 30.4443 12.3817 31.4989 12.3818 32.8005V40.5925C12.3818 41.894 11.4419 42.9498 10.2822 42.95C9.12243 42.95 8.18164 41.8941 8.18164 40.5925V32.8005C8.18176 31.4991 9.1225 30.4441 10.2822 30.4441ZM83.918 30.4441C85.0777 30.4441 86.0184 31.4988 86.0186 32.8005V40.5925C86.0186 41.8941 85.0778 42.95 83.918 42.95C82.7584 42.9497 81.8184 41.8939 81.8184 40.5925V32.8005C81.8185 31.4993 82.7584 30.4444 83.918 30.4441ZM92.0996 30.4441C93.2593 30.4441 94.2001 31.4988 94.2002 32.8005V40.5925C94.2002 41.8941 93.2594 42.95 92.0996 42.95C90.94 42.9497 90 41.8939 90 40.5925V32.8005C90.0001 31.4992 90.9401 30.4443 92.0996 30.4441Z" fill="#FF6565"/>
</svg>
